name Walk4.mot
datacolumns 19
datarows 10
range 2.89500000 2.94000000
endheader

                time	   L_ground_force_vx	   L_ground_force_vy	   L_ground_force_vz	   L_ground_force_px	   L_ground_force_py	   L_ground_force_pz	   R_ground_force_vx	   R_ground_force_vy	   R_ground_force_vz	   R_ground_force_px	   R_ground_force_py	   R_ground_force_pz	   L_ground_torque_x	   L_ground_torque_y	   L_ground_torque_z	   R_ground_torque_x	   R_ground_torque_y	   R_ground_torque_z	
          2.89500000	          0.00000000	          0.00000000	         -0.00000000	         -0.00000000	          0.00000000	         -0.00000000	         25.22009261	        107.78993118	          5.94626565	          0.16626533	          0.00000000	          0.07426245	          0.00000000	          0.00000000	          0.00000000	          0.00000000	         -7.41793527	          0.00000000	
          2.90000000	          0.00000000	          0.00000000	         -0.00000000	         -0.00000000	          0.00000000	         -0.00000000	         19.35868745	         79.99390238	          5.06781775	          0.15150480	          0.00000000	          0.06772814	          0.00000000	          0.00000000	          0.00000000	          0.00000000	         -6.03533093	          0.00000000	
          2.90500000	          0.00000000	          0.00000000	         -0.00000000	         -0.00000000	          0.00000000	         -0.00000000	         14.14539227	         56.32242650	          4.12931674	          0.13370640	          0.00000000	          0.05984990	          0.00000000	          0.00000000	          0.00000000	          0.00000000	         -4.72466798	          0.00000000	
          2.91000000	          0.00000000	          0.00000000	         -0.00000000	         -0.00000000	          0.00000000	         -0.00000000	          9.70308438	         36.85824550	          3.20925522	          0.11344243	          0.00000000	          0.05085526	          0.00000000	          0.00000000	          0.00000000	          0.00000000	         -3.53012515	          0.00000000	
          2.91500000	          0.00000000	         -0.00000000	         -0.00000000	         -0.00000000	          0.00000000	         -0.00000000	          6.08897872	         21.49104948	          2.36669066	          0.09189355	          0.00000000	          0.04125673	          0.00000000	          0.00000000	          0.00000000	          0.00000000	         -2.48831317	          0.00000000	
          2.92000000	         -0.00000000	         -0.00000000	         -0.00000000	         -0.00000000	          0.00000000	         -0.00000000	          3.28978633	          9.93749334	          1.63922107	          0.07082329	          0.00000000	          0.03184590	          0.00000000	          0.00000000	          0.00000000	          0.00000000	         -1.62351468	          0.00000000	
          2.92500000	         -0.00000000	         -0.00000000	         -0.00000000	         -0.00000000	          0.00000000	         -0.00000000	          1.23453616	          1.74248605	          1.04306634	          0.05171007	          0.00000000	          0.02329230	          0.00000000	          0.00000000	          0.00000000	          0.00000000	         -0.94053578	          0.00000000	
          2.93000000	         -0.00000000	         -0.00000000	         -0.00000000	         -0.00000000	          0.00000000	         -0.00000000	         -0.18109284	         -3.65062296	          0.57826993	          0.03536349	          0.00000000	          0.01596490	          0.00000000	         -0.00000000	          0.00000000	          0.00000000	         -0.42816963	          0.00000000	
          2.93500000	         -0.00000000	         -0.00000000	         -0.00000000	          0.00000000	          0.00000000	          0.00000000	         -1.07458604	         -6.82039915	          0.23447084	          0.02208393	          0.00000000	          0.01000334	          0.00000000	         -0.00000000	          0.00000000	          0.00000000	         -0.06573611	          0.00000000	
          2.94000000	         -0.00000000	         -0.00000000	         -0.00000000	          0.00000000	          0.00000000	          0.00000000	         -1.56257916	         -8.31370412	         -0.00454467	          0.01182142	          0.00000000	          0.00538917	          0.00000000	         -0.00000000	          0.00000000	          0.00000000	          0.17188442	          0.00000000	
